<mxfile host="app.diagrams.net" modified="2024-04-21T23:37:24.420Z" agent="Mozilla/5.0 (Windows NT 10.0; Win64; x64) AppleWebKit/537.36 (KHTML, like Gecko) Chrome/123.0.0.0 Safari/537.36" etag="sRLsPFdourkCxOrdWkYc" version="23.1.8" type="github">
  <diagram id="C5RBs43oDa-KdzZeNtuy" name="Page-1">
    <mxGraphModel dx="880" dy="1603" grid="1" gridSize="10" guides="1" tooltips="1" connect="1" arrows="1" fold="1" page="1" pageScale="1" pageWidth="827" pageHeight="1169" math="0" shadow="0">
      <root>
        <mxCell id="WIyWlLk6GJQsqaUBKTNV-0" />
        <mxCell id="WIyWlLk6GJQsqaUBKTNV-1" parent="WIyWlLk6GJQsqaUBKTNV-0" />
        <mxCell id="TALQXuZMkDQJeX5zNDAR-22" style="edgeStyle=orthogonalEdgeStyle;rounded=0;orthogonalLoop=1;jettySize=auto;html=1;entryX=0;entryY=0.5;entryDx=0;entryDy=0;exitX=0.5;exitY=1;exitDx=0;exitDy=0;exitPerimeter=0;" edge="1" parent="WIyWlLk6GJQsqaUBKTNV-1" source="TALQXuZMkDQJeX5zNDAR-1" target="TALQXuZMkDQJeX5zNDAR-4">
          <mxGeometry relative="1" as="geometry" />
        </mxCell>
        <mxCell id="TALQXuZMkDQJeX5zNDAR-1" value="Alumno" style="strokeWidth=2;html=1;shape=mxgraph.flowchart.start_1;whiteSpace=wrap;" vertex="1" parent="WIyWlLk6GJQsqaUBKTNV-1">
          <mxGeometry x="180" y="30" width="100" height="60" as="geometry" />
        </mxCell>
        <mxCell id="TALQXuZMkDQJeX5zNDAR-18" style="edgeStyle=orthogonalEdgeStyle;rounded=0;orthogonalLoop=1;jettySize=auto;html=1;entryX=0.5;entryY=0;entryDx=0;entryDy=0;" edge="1" parent="WIyWlLk6GJQsqaUBKTNV-1" source="TALQXuZMkDQJeX5zNDAR-4" target="TALQXuZMkDQJeX5zNDAR-9">
          <mxGeometry relative="1" as="geometry" />
        </mxCell>
        <mxCell id="TALQXuZMkDQJeX5zNDAR-4" value="Proceso de inscripción" style="rounded=1;whiteSpace=wrap;html=1;absoluteArcSize=1;arcSize=14;strokeWidth=2;" vertex="1" parent="WIyWlLk6GJQsqaUBKTNV-1">
          <mxGeometry x="320" y="210" width="140" height="50" as="geometry" />
        </mxCell>
        <mxCell id="TALQXuZMkDQJeX5zNDAR-5" value="Aspirante" style="strokeWidth=2;html=1;shape=mxgraph.flowchart.start_1;whiteSpace=wrap;" vertex="1" parent="WIyWlLk6GJQsqaUBKTNV-1">
          <mxGeometry x="430" y="30" width="100" height="60" as="geometry" />
        </mxCell>
        <mxCell id="TALQXuZMkDQJeX5zNDAR-20" style="edgeStyle=orthogonalEdgeStyle;rounded=0;orthogonalLoop=1;jettySize=auto;html=1;" edge="1" parent="WIyWlLk6GJQsqaUBKTNV-1" source="TALQXuZMkDQJeX5zNDAR-6" target="TALQXuZMkDQJeX5zNDAR-1">
          <mxGeometry relative="1" as="geometry" />
        </mxCell>
        <mxCell id="TALQXuZMkDQJeX5zNDAR-6" value="Inicio" style="strokeWidth=2;html=1;shape=mxgraph.flowchart.start_2;whiteSpace=wrap;" vertex="1" parent="WIyWlLk6GJQsqaUBKTNV-1">
          <mxGeometry x="335" y="-60" width="50" height="50" as="geometry" />
        </mxCell>
        <mxCell id="TALQXuZMkDQJeX5zNDAR-7" value="Finalizar" style="strokeWidth=2;html=1;shape=mxgraph.flowchart.start_2;whiteSpace=wrap;" vertex="1" parent="WIyWlLk6GJQsqaUBKTNV-1">
          <mxGeometry x="360" y="750" width="60" height="60" as="geometry" />
        </mxCell>
        <mxCell id="TALQXuZMkDQJeX5zNDAR-24" style="edgeStyle=orthogonalEdgeStyle;rounded=0;orthogonalLoop=1;jettySize=auto;html=1;entryX=1;entryY=0.75;entryDx=0;entryDy=0;" edge="1" parent="WIyWlLk6GJQsqaUBKTNV-1" source="TALQXuZMkDQJeX5zNDAR-8" target="TALQXuZMkDQJeX5zNDAR-4">
          <mxGeometry relative="1" as="geometry" />
        </mxCell>
        <mxCell id="TALQXuZMkDQJeX5zNDAR-8" value="Administración" style="strokeWidth=2;html=1;shape=mxgraph.flowchart.start_1;whiteSpace=wrap;" vertex="1" parent="WIyWlLk6GJQsqaUBKTNV-1">
          <mxGeometry x="430" y="120" width="100" height="60" as="geometry" />
        </mxCell>
        <mxCell id="TALQXuZMkDQJeX5zNDAR-19" style="edgeStyle=orthogonalEdgeStyle;rounded=0;orthogonalLoop=1;jettySize=auto;html=1;exitX=0.5;exitY=1;exitDx=0;exitDy=0;entryX=0.5;entryY=0;entryDx=0;entryDy=0;" edge="1" parent="WIyWlLk6GJQsqaUBKTNV-1" source="TALQXuZMkDQJeX5zNDAR-9" target="TALQXuZMkDQJeX5zNDAR-10">
          <mxGeometry relative="1" as="geometry" />
        </mxCell>
        <mxCell id="TALQXuZMkDQJeX5zNDAR-9" value="Actualización de datos personales/Carga de datos" style="rounded=1;whiteSpace=wrap;html=1;absoluteArcSize=1;arcSize=14;strokeWidth=2;" vertex="1" parent="WIyWlLk6GJQsqaUBKTNV-1">
          <mxGeometry x="320" y="290" width="140" height="60" as="geometry" />
        </mxCell>
        <mxCell id="TALQXuZMkDQJeX5zNDAR-17" style="edgeStyle=orthogonalEdgeStyle;rounded=0;orthogonalLoop=1;jettySize=auto;html=1;" edge="1" parent="WIyWlLk6GJQsqaUBKTNV-1" source="TALQXuZMkDQJeX5zNDAR-10" target="TALQXuZMkDQJeX5zNDAR-11">
          <mxGeometry relative="1" as="geometry" />
        </mxCell>
        <mxCell id="TALQXuZMkDQJeX5zNDAR-10" value="Solicitud de certificados" style="rounded=1;whiteSpace=wrap;html=1;absoluteArcSize=1;arcSize=14;strokeWidth=2;" vertex="1" parent="WIyWlLk6GJQsqaUBKTNV-1">
          <mxGeometry x="320" y="370" width="140" height="50" as="geometry" />
        </mxCell>
        <mxCell id="TALQXuZMkDQJeX5zNDAR-16" style="edgeStyle=orthogonalEdgeStyle;rounded=0;orthogonalLoop=1;jettySize=auto;html=1;" edge="1" parent="WIyWlLk6GJQsqaUBKTNV-1" source="TALQXuZMkDQJeX5zNDAR-11" target="TALQXuZMkDQJeX5zNDAR-12">
          <mxGeometry relative="1" as="geometry" />
        </mxCell>
        <mxCell id="TALQXuZMkDQJeX5zNDAR-11" value="Consultas de historial académico" style="rounded=1;whiteSpace=wrap;html=1;absoluteArcSize=1;arcSize=14;strokeWidth=2;" vertex="1" parent="WIyWlLk6GJQsqaUBKTNV-1">
          <mxGeometry x="320" y="450" width="140" height="60" as="geometry" />
        </mxCell>
        <mxCell id="TALQXuZMkDQJeX5zNDAR-15" style="edgeStyle=orthogonalEdgeStyle;rounded=0;orthogonalLoop=1;jettySize=auto;html=1;entryX=0.5;entryY=0;entryDx=0;entryDy=0;" edge="1" parent="WIyWlLk6GJQsqaUBKTNV-1" source="TALQXuZMkDQJeX5zNDAR-12" target="TALQXuZMkDQJeX5zNDAR-13">
          <mxGeometry relative="1" as="geometry" />
        </mxCell>
        <mxCell id="TALQXuZMkDQJeX5zNDAR-12" value="Carga de justificación de inasistencias" style="rounded=1;whiteSpace=wrap;html=1;absoluteArcSize=1;arcSize=14;strokeWidth=2;" vertex="1" parent="WIyWlLk6GJQsqaUBKTNV-1">
          <mxGeometry x="320" y="540" width="140" height="50" as="geometry" />
        </mxCell>
        <mxCell id="TALQXuZMkDQJeX5zNDAR-14" style="edgeStyle=orthogonalEdgeStyle;rounded=0;orthogonalLoop=1;jettySize=auto;html=1;" edge="1" parent="WIyWlLk6GJQsqaUBKTNV-1" source="TALQXuZMkDQJeX5zNDAR-13" target="TALQXuZMkDQJeX5zNDAR-7">
          <mxGeometry relative="1" as="geometry" />
        </mxCell>
        <mxCell id="TALQXuZMkDQJeX5zNDAR-13" value="Solicitud de diplomas" style="rounded=1;whiteSpace=wrap;html=1;absoluteArcSize=1;arcSize=14;strokeWidth=2;" vertex="1" parent="WIyWlLk6GJQsqaUBKTNV-1">
          <mxGeometry x="320" y="620" width="140" height="50" as="geometry" />
        </mxCell>
        <mxCell id="TALQXuZMkDQJeX5zNDAR-21" style="edgeStyle=orthogonalEdgeStyle;rounded=0;orthogonalLoop=1;jettySize=auto;html=1;entryX=0.5;entryY=0;entryDx=0;entryDy=0;entryPerimeter=0;" edge="1" parent="WIyWlLk6GJQsqaUBKTNV-1" source="TALQXuZMkDQJeX5zNDAR-6" target="TALQXuZMkDQJeX5zNDAR-5">
          <mxGeometry relative="1" as="geometry" />
        </mxCell>
        <mxCell id="TALQXuZMkDQJeX5zNDAR-23" style="edgeStyle=orthogonalEdgeStyle;rounded=0;orthogonalLoop=1;jettySize=auto;html=1;entryX=0.5;entryY=0;entryDx=0;entryDy=0;entryPerimeter=0;" edge="1" parent="WIyWlLk6GJQsqaUBKTNV-1" source="TALQXuZMkDQJeX5zNDAR-5" target="TALQXuZMkDQJeX5zNDAR-8">
          <mxGeometry relative="1" as="geometry" />
        </mxCell>
      </root>
    </mxGraphModel>
  </diagram>
</mxfile>
